<svg width="272" height="113" viewBox="0 0 272 113" fill="none" xmlns="http://www.w3.org/2000/svg">
<mask id="path-1-inside-1_2249_936" fill="white">
<path d="M0 0H272V100H0V0Z"/>
</mask>
<path d="M0 0V-2H-2V0H0ZM272 0H274V-2H272V0ZM0 0V2H272V0V-2H0V0ZM272 0H270V100H272H274V0H272ZM0 100H2V0H0H-2V100H0Z" fill="#0F2A45" mask="url(#path-1-inside-1_2249_936)"/>
<g filter="url(#filter0_d_2249_936)">
<path d="M44.45 58L40.05 45.45L35.65 58H44.45ZM47.05 65.45H33.05L30.8 72H20.35L34.7 34.3H45.4L59.75 72H49.3L47.05 65.45ZM67.857 34.3L76.957 57.25L86.107 34.3H96.757L80.857 72H73.057L57.207 34.3H67.857ZM118.229 58L113.829 45.45L109.429 58H118.229ZM120.829 65.45H106.829L104.579 72H94.1293L108.479 34.3H119.179L133.529 72H123.079L120.829 65.45ZM147.617 34.3V63.7H159.367V72H137.817V34.3H147.617ZM172.246 53.15C172.246 54.65 172.529 56.0333 173.096 57.3C173.663 58.5667 174.429 59.6667 175.396 60.6C176.363 61.5333 177.479 62.2667 178.746 62.8C180.046 63.3 181.413 63.55 182.846 63.55C184.279 63.55 185.629 63.3 186.896 62.8C188.196 62.2667 189.329 61.5333 190.296 60.6C191.296 59.6667 192.079 58.5667 192.646 57.3C193.213 56.0333 193.496 54.65 193.496 53.15C193.496 51.65 193.213 50.2667 192.646 49C192.079 47.7333 191.296 46.6333 190.296 45.7C189.329 44.7667 188.196 44.05 186.896 43.55C185.629 43.0167 184.279 42.75 182.846 42.75C181.413 42.75 180.046 43.0167 178.746 43.55C177.479 44.05 176.363 44.7667 175.396 45.7C174.429 46.6333 173.663 47.7333 173.096 49C172.529 50.2667 172.246 51.65 172.246 53.15ZM161.996 53.15C161.996 50.35 162.513 47.75 163.546 45.35C164.579 42.9167 166.013 40.8 167.846 39C169.679 37.2 171.863 35.8 174.396 34.8C176.963 33.7667 179.779 33.25 182.846 33.25C185.879 33.25 188.679 33.7667 191.246 34.8C193.813 35.8 196.013 37.2 197.846 39C199.713 40.8 201.163 42.9167 202.196 45.35C203.229 47.75 203.746 50.35 203.746 53.15C203.746 55.95 203.229 58.5667 202.196 61C201.163 63.4 199.713 65.5 197.846 67.3C196.013 69.1 193.813 70.5167 191.246 71.55C188.679 72.55 185.879 73.05 182.846 73.05C179.779 73.05 176.963 72.55 174.396 71.55C171.863 70.5167 169.679 69.1 167.846 67.3C166.013 65.5 164.579 63.4 163.546 61C162.513 58.5667 161.996 55.95 161.996 53.15ZM209.936 72V34.3H219.736L237.836 57.35V34.3H247.586V72H237.836L219.736 48.95V72H209.936Z" fill="#0F2A45"/>
</g>
<line x1="272" y1="99" x2="214" y2="99" stroke="#0F2A45" stroke-width="2"/>
<line x1="58" y1="99" y2="99" stroke="#0F2A45" stroke-width="2"/>
<path d="M65.8066 107V91.9219H68.9707C70.4876 91.9219 71.6855 92.0716 72.5645 92.3711C73.5085 92.6641 74.3646 93.1621 75.1328 93.8652C76.6888 95.2845 77.4668 97.1497 77.4668 99.4609C77.4668 101.779 76.6562 103.654 75.0352 105.086C74.2214 105.802 73.3685 106.3 72.4766 106.58C71.6432 106.86 70.4616 107 68.9316 107H65.8066ZM68.082 104.861H69.1074C70.1296 104.861 70.9792 104.754 71.6562 104.539C72.3333 104.311 72.9453 103.95 73.4922 103.455C74.612 102.433 75.1719 101.102 75.1719 99.4609C75.1719 97.8073 74.6185 96.4661 73.5117 95.4375C72.5156 94.5195 71.0475 94.0605 69.1074 94.0605H68.082V104.861ZM88.6582 94.0605H82.6133V97.6836H88.4824V99.8223H82.6133V104.861H88.6582V107H80.3379V91.9219H88.6582V94.0605ZM92.4082 91.9219L96.5781 102.371L100.807 91.9219H103.297L96.5293 108.133L89.918 91.9219H92.4082ZM113.502 94.0605H107.457V97.6836H113.326V99.8223H107.457V104.861H113.502V107H105.182V91.9219H113.502V94.0605ZM118.766 91.9219V104.861H123.199V107H116.49V91.9219H118.766ZM124 99.3926C124 97.2702 124.778 95.4473 126.334 93.9238C127.883 92.4004 129.745 91.6387 131.92 91.6387C134.068 91.6387 135.911 92.4069 137.447 93.9434C138.99 95.4798 139.762 97.3255 139.762 99.4805C139.762 101.648 138.987 103.488 137.438 104.998C135.882 106.515 134.003 107.273 131.803 107.273C129.856 107.273 128.108 106.6 126.559 105.252C124.853 103.761 124 101.808 124 99.3926ZM126.295 99.4219C126.295 101.089 126.855 102.459 127.975 103.533C129.088 104.607 130.374 105.145 131.832 105.145C133.414 105.145 134.749 104.598 135.836 103.504C136.923 102.397 137.467 101.049 137.467 99.4609C137.467 97.8529 136.93 96.5052 135.855 95.418C134.788 94.3242 133.466 93.7773 131.891 93.7773C130.322 93.7773 128.997 94.3242 127.916 95.418C126.835 96.4987 126.295 97.8333 126.295 99.4219ZM144.898 100.877V107H142.623V91.9219H145.201C146.464 91.9219 147.418 92.0098 148.062 92.1855C148.714 92.3613 149.286 92.6934 149.781 93.1816C150.647 94.028 151.08 95.0957 151.08 96.3848C151.08 97.765 150.618 98.8587 149.693 99.666C148.769 100.473 147.522 100.877 145.953 100.877H144.898ZM144.898 98.7676H145.748C147.838 98.7676 148.883 97.9635 148.883 96.3555C148.883 94.7995 147.805 94.0215 145.65 94.0215H144.898V98.7676ZM152.896 107L156.07 90.7891L161.246 102.508L166.607 90.7891L169.459 107H167.125L165.67 97.8984L161.207 107.693L156.871 97.8887L155.25 107H152.896ZM180.982 94.0605H174.938V97.6836H180.807V99.8223H174.938V104.861H180.982V107H172.662V91.9219H180.982V94.0605ZM183.971 107V90.8965L194.967 102.4V91.9219H197.242V107.918L186.246 96.4434V107H183.971ZM205.025 94.0605V107H202.75V94.0605H199.283V91.9219H208.482V94.0605H205.025Z" fill="#0F2A45"/>
<defs>
<filter id="filter0_d_2249_936" x="20.3501" y="33.25" width="236.236" height="47.8" filterUnits="userSpaceOnUse" color-interpolation-filters="sRGB">
<feFlood flood-opacity="0" result="BackgroundImageFix"/>
<feColorMatrix in="SourceAlpha" type="matrix" values="0 0 0 0 0 0 0 0 0 0 0 0 0 0 0 0 0 0 127 0" result="hardAlpha"/>
<feOffset dx="5" dy="4"/>
<feGaussianBlur stdDeviation="2"/>
<feComposite in2="hardAlpha" operator="out"/>
<feColorMatrix type="matrix" values="0 0 0 0 0 0 0 0 0 0 0 0 0 0 0 0 0 0 0.25 0"/>
<feBlend mode="normal" in2="BackgroundImageFix" result="effect1_dropShadow_2249_936"/>
<feBlend mode="normal" in="SourceGraphic" in2="effect1_dropShadow_2249_936" result="shape"/>
</filter>
</defs>
</svg>
