<svg width="259" height="110" viewBox="0 0 259 110" fill="none" xmlns="http://www.w3.org/2000/svg">
<rect width="259" height="110" fill="#0F2A45"/>
<path d="M76.94 88V81H80C80.76 81 81.4267 81.1467 82 81.44C82.5733 81.7333 83.02 82.14 83.34 82.66C83.66 83.18 83.82 83.7933 83.82 84.5C83.82 85.2 83.66 85.8133 83.34 86.34C83.02 86.86 82.5733 87.2667 82 87.56C81.4267 87.8533 80.76 88 80 88H76.94ZM78.24 86.9H79.94C80.46 86.9 80.9133 86.8 81.3 86.6C81.6867 86.4 81.9833 86.12 82.19 85.76C82.4033 85.4 82.51 84.98 82.51 84.5C82.51 84.0133 82.4033 83.5933 82.19 83.24C81.9833 82.88 81.6867 82.6 81.3 82.4C80.9133 82.2 80.46 82.1 79.94 82.1H78.24V86.9ZM87.7017 88V81H92.8117V82.09H89.0017V86.91H92.9517V88H87.7017ZM88.9017 84.98V83.91H92.3817V84.98H88.9017ZM98.8733 88L95.8133 81H97.2233L99.9533 87.33H99.1433L101.903 81H103.203L100.153 88H98.8733ZM106.442 88V81H111.552V82.09H107.742V86.91H111.692V88H106.442ZM107.642 84.98V83.91H111.122V84.98H107.642ZM115.641 88V81H116.941V86.9H120.601V88H115.641ZM127.281 88.1C126.734 88.1 126.231 88.01 125.771 87.83C125.311 87.65 124.911 87.4 124.571 87.08C124.231 86.7533 123.967 86.3733 123.781 85.94C123.594 85.5 123.501 85.02 123.501 84.5C123.501 83.98 123.594 83.5033 123.781 83.07C123.967 82.63 124.231 82.25 124.571 81.93C124.911 81.6033 125.311 81.35 125.771 81.17C126.231 80.99 126.731 80.9 127.271 80.9C127.817 80.9 128.317 80.99 128.771 81.17C129.231 81.35 129.631 81.6033 129.971 81.93C130.311 82.25 130.574 82.63 130.761 83.07C130.947 83.5033 131.041 83.98 131.041 84.5C131.041 85.02 130.947 85.5 130.761 85.94C130.574 86.38 130.311 86.76 129.971 87.08C129.631 87.4 129.231 87.65 128.771 87.83C128.317 88.01 127.821 88.1 127.281 88.1ZM127.271 86.96C127.624 86.96 127.951 86.9 128.251 86.78C128.551 86.66 128.811 86.49 129.031 86.27C129.251 86.0433 129.421 85.7833 129.541 85.49C129.667 85.19 129.731 84.86 129.731 84.5C129.731 84.14 129.667 83.8133 129.541 83.52C129.421 83.22 129.251 82.96 129.031 82.74C128.811 82.5133 128.551 82.34 128.251 82.22C127.951 82.1 127.624 82.04 127.271 82.04C126.917 82.04 126.591 82.1 126.291 82.22C125.997 82.34 125.737 82.5133 125.511 82.74C125.291 82.96 125.117 83.22 124.991 83.52C124.871 83.8133 124.811 84.14 124.811 84.5C124.811 84.8533 124.871 85.18 124.991 85.48C125.117 85.78 125.291 86.0433 125.511 86.27C125.731 86.49 125.991 86.66 126.291 86.78C126.591 86.9 126.917 86.96 127.271 86.96ZM134.919 88V81H137.799C138.419 81 138.949 81.1 139.389 81.3C139.835 81.5 140.179 81.7867 140.419 82.16C140.659 82.5333 140.779 82.9767 140.779 83.49C140.779 84.0033 140.659 84.4467 140.419 84.82C140.179 85.1933 139.835 85.48 139.389 85.68C138.949 85.88 138.419 85.98 137.799 85.98H135.639L136.219 85.37V88H134.919ZM136.219 85.51L135.639 84.88H137.739C138.312 84.88 138.742 84.76 139.029 84.52C139.322 84.2733 139.469 83.93 139.469 83.49C139.469 83.0433 139.322 82.7 139.029 82.46C138.742 82.22 138.312 82.1 137.739 82.1H135.639L136.219 81.46V85.51ZM144.577 88V81H145.647L148.707 86.11H148.147L151.157 81H152.227L152.237 88H151.007L150.997 82.93H151.257L148.697 87.2H148.117L145.517 82.93H145.817V88H144.577ZM156.628 88V81H161.738V82.09H157.928V86.91H161.878V88H156.628ZM157.828 84.98V83.91H161.308V84.98H157.828ZM165.827 88V81H166.897L171.287 86.39H170.757V81H172.047V88H170.977L166.587 82.61H167.117V88H165.827ZM177.842 88V82.1H175.522V81H181.462V82.1H179.142V88H177.842Z" fill="white"/>
<path d="M53.05 59.75L56.25 66H49.25L46.05 59.75L38.4 44.75L30.75 59.75L27.55 66H20.55L23.75 59.75L38.4 31L53.05 59.75ZM80.2742 31H87.2742L84.0742 37.25L69.4242 66L54.7742 37.25L51.5742 31H58.5742L61.7742 37.25L69.4242 52.25L77.0742 37.25L80.2742 31ZM115.198 59.75L118.398 66H111.398L108.198 59.75L100.548 44.75L92.8984 59.75L89.6984 66H82.6984L85.8984 59.75L100.548 31L115.198 59.75ZM127.359 66V31.0909H133.683V60.6989H149.058V66H127.359ZM174.654 31C184.304 31 192.154 38.85 192.154 48.5C192.154 58.15 184.304 66 174.654 66C165.004 66 157.154 58.15 157.154 48.5C157.154 38.85 165.004 31 174.654 31ZM174.654 59.75C180.854 59.75 185.904 54.7 185.904 48.5C185.904 42.3 180.854 37.25 174.654 37.25C168.454 37.25 163.404 42.3 163.404 48.5C163.404 54.7 168.454 59.75 174.654 59.75ZM229.654 31L235.904 31.05V66.05L229.654 61.25L207.154 43.9V66.05H200.904V31.15L207.154 35.95L229.654 53.3V31Z" fill="white"/>
<line x1="73" y1="84.5" x2="20" y2="84.5" stroke="white"/>
<line x1="239" y1="84.5" x2="186" y2="84.5" stroke="white"/>
</svg>
